<svg width="23.0942" height="23.9998" viewBox="0 0 23.0942 23.9998" fill="none" xmlns="http://www.w3.org/2000/svg">
<g id="Group 9439">
<g id="Group 17">
<path id="Fill-182" fill-rule="evenodd" clip-rule="evenodd" d="M5.99297 7.64351C6.45934 7.66483 6.91481 7.49304 7.25946 7.16583C7.60411 6.83861 7.8098 6.38269 7.8314 5.89807C7.80962 5.41353 7.60388 4.95772 7.25927 4.63054C6.91466 4.30337 6.45929 4.13151 5.99297 4.15263C5.52657 4.1315 5.07113 4.30334 4.72641 4.6305C4.38169 4.95766 4.1758 5.41346 4.15383 5.89807C4.17561 6.38275 4.38145 6.83867 4.72621 7.16587C5.07098 7.49307 5.52652 7.66484 5.99297 7.64351Z" fill="#8A8A8A"/>
<path id="Fill-183" fill-rule="evenodd" clip-rule="evenodd" d="M4.57513 18.8536H7.87339V8.9686H4.57513V18.8536Z" fill="#8A8A8A"/>
<path id="Fill-184" fill-rule="evenodd" clip-rule="evenodd" d="M12.502 13.3555C12.502 12.2217 13.0178 11.1133 14.2516 11.1133C15.4854 11.1133 15.7912 12.2217 15.7912 13.3286V18.7271H19.0748V13.1082C19.0748 9.20423 16.8542 8.53078 15.4882 8.53078C14.8952 8.50418 14.3062 8.64232 13.7817 8.93096C13.2572 9.2196 12.8162 9.64831 12.5041 10.1729V8.84205H9.20935V18.7271H12.502V13.3555Z" fill="#8A8A8A"/>
</g>
<g id="Rectangle 12815">
</g>
</g>
</svg>
